<svg width="800" height="800" viewBox="0 0 800 800" fill="none" xmlns="http://www.w3.org/2000/svg">
  <defs>
    <linearGradient id="bg" x1="0" y1="0" x2="1" y2="1">
      <stop offset="0%" stop-color="#0B1425" />
      <stop offset="100%" stop-color="#131B35" />
    </linearGradient>
    <radialGradient id="glow" cx="50%" cy="20%" r="70%">
      <stop offset="0%" stop-color="#D7FF3F" stop-opacity="0.35"/>
      <stop offset="100%" stop-color="#0B1425" stop-opacity="0"/>
    </radialGradient>
  </defs>
  <rect width="800" height="800" rx="60" fill="url(#bg)" />
  <circle cx="400" cy="240" r="160" fill="url(#glow)" />
  <circle cx="400" cy="240" r="130" fill="#0F1B34" stroke="#D7FF3F" stroke-opacity="0.28" stroke-width="4" />
  <path d="M250 620C250 540 310 480 400 480C490 480 550 540 550 620" fill="#12213B" />
  <path d="M260 620C260 540 320 490 400 490C480 490 540 540 540 620" fill="rgba(215,255,63,0.1)" />
  <path d="M340 310C340 260 380 230 400 230C420 230 460 260 460 310" stroke="#D7FF3F" stroke-width="5" stroke-linecap="round" />
  <path d="M320 360C320 340 340 330 360 330H440C460 330 480 340 480 360" stroke="#D7FF3F" stroke-width="6" stroke-linecap="round" />
  <path d="M320 420C320 400 340 390 360 390H440C460 390 480 400 480 420" stroke="#D7FF3F" stroke-width="6" stroke-linecap="round" />
  <rect x="200" y="680" width="400" height="40" rx="20" fill="rgba(215,255,63,0.1)" />
</svg>
